PathFileType	4	(X/Y/Z)	C:\Users\°ÂÌØÂü\Desktop\20201223\Trimmed_Trimmed_bx_y_10_501.trc
DataRate	CameraRate	NumFrames	NumMarkers	Units	OrigDataRate	OrigDataStartFrame	OrigNumFrames
50.00	50.00	      6	43	mm	50.00	719	      1437
Frame#	Time	Top.Head			R.Acromium			L.Acromium			Sternum			R.ASIS			L.ASIS			V.Sacral			R.Thigh.Upper			R.Thigh.Front			R.Thigh.Rear			R.Knee.Lat			R.Knee.Med			R.Shank.Upper			R.Shank.Front			R.Shank.Rear			R.Ankle.Lat			R.Midfoot.Lat			R.Toe.Lat			R.Toe.Tip			R.Toe.Med			R.Ankle.Med			R.Midfoot.Sup			R.Heel			L.Thigh.Upper			L.Thigh.Front			L.Thigh.Rear			L.Knee.Lat			L.Knee.Med			L.Shank.Upper			L.Shank.Front			L.Shank.Rear			L.Ankle.Lat			L.Midfoot.Lat			L.Toe.Lat			L.Toe.Tip			L.Toe.Med			L.Ankle.Med			L.Midfoot.Sup			L.Heel			origin1 front left			origin2 front right			origin 3 back right			origin 4 back leftt			
		X1	Y1	Z1	X2	Y2	Z2	X3	Y3	Z3	X4	Y4	Z4	X5	Y5	Z5	X6	Y6	Z6	X7	Y7	Z7	X8	Y8	Z8	X9	Y9	Z9	X10	Y10	Z10	X11	Y11	Z11	X12	Y12	Z12	X13	Y13	Z13	X14	Y14	Z14	X15	Y15	Z15	X16	Y16	Z16	X17	Y17	Z17	X18	Y18	Z18	X19	Y19	Z19	X20	Y20	Z20	X21	Y21	Z21	X22	Y22	Z22	X23	Y23	Z23	X24	Y24	Z24	X25	Y25	Z25	X26	Y26	Z26	X27	Y27	Z27	X28	Y28	Z28	X29	Y29	Z29	X30	Y30	Z30	X31	Y31	Z31	X32	Y32	Z32	X33	Y33	Z33	X34	Y34	Z34	X35	Y35	Z35	X36	Y36	Z36	X37	Y37	Z37	X38	Y38	Z38	X39	Y39	Z39	X40	Y40	Z40	X41	Y41	Z41	X42	Y42	Z42	X43	Y43	Z43	

719	14.360	-721.88287	241.10841	1835.79822	-687.96863	54.83251	1523.17139	-660.41870	438.61829	1540.38611	-572.84808	255.67905	1396.53564	-545.96954	124.03873	1095.66003	-566.88910	392.40265	1072.23267	-762.70758	245.83868	1043.20032	-589.78101	98.30863	897.36316	-541.64142	158.62294	850.25641	-636.05579	92.99469	753.12531	-654.15833	125.13597	610.58777	-643.39484	233.77028	565.00159	-692.44531	124.36205	542.72760	-608.99731	175.23642	549.43811	-730.62268	127.44110	475.58310	-689.20898	145.89040	214.46109	-618.10785	77.29285	165.81364	-573.20404	49.01103	160.62881	-493.88440	91.82510	160.52271	-532.55524	143.63579	165.64964	-634.90051	218.19710	219.35733	-593.03119	188.49908	169.65988	-717.48126	214.17694	169.56604	-593.55078	438.21207	889.76294	-544.24500	379.74396	845.40924	-636.24225	441.22702	756.86731	-667.19598	414.36154	630.65228	-630.31793	312.11322	581.96552	-674.63806	411.41858	565.15314	-620.86969	371.11832	543.50226	-726.05139	415.36154	511.59769	-682.00934	414.00864	213.66661	-586.00299	469.62009	163.61043	-546.79120	480.67371	157.66095	-487.81754	430.08487	166.84961	-525.20398	388.72736	177.03294	-643.02441	327.14716	208.82404	-594.85419	349.42694	168.50990	-731.97119	342.58551	165.34914	-443.49280	449.07394	147.07167	-450.43317	75.45404	144.67450	-806.17578	82.48683	142.69836	-799.21533	457.52841	145.12721	
720	14.380	-721.61475	240.66702	1835.95093	-688.00299	54.51886	1523.07922	-660.85046	438.23492	1540.30237	-572.96838	255.54987	1396.52856	-545.33746	123.27982	1096.47412	-567.08569	392.35861	1072.29980	-762.86267	245.44179	1043.15173	-589.70483	98.20153	897.31885	-541.59283	158.55197	850.31665	-635.87823	92.81921	753.18719	-654.03424	125.06323	610.49127	-643.27844	233.74968	565.17188	-692.37628	124.20489	542.71387	-608.97766	175.10709	549.36200	-730.53888	127.26978	475.48001	-689.17371	145.81041	214.45599	-618.06708	77.32723	165.81029	-573.19916	49.06906	160.62869	-493.86475	91.81472	160.53098	-532.56714	143.66960	165.57764	-634.94781	218.15878	219.27814	-593.06946	188.54028	169.58949	-717.47101	214.14587	169.54758	-593.85547	437.98285	889.73236	-544.36261	379.65247	845.53687	-636.52576	440.99448	756.88867	-667.23877	414.26065	630.65521	-630.32623	311.99524	581.88599	-674.80835	411.19995	565.15332	-620.96075	371.06033	543.45862	-726.12061	415.13788	511.54913	-682.04053	414.02139	213.71764	-585.98450	469.60773	163.62875	-546.79974	480.66827	157.64957	-487.83490	430.10672	166.86693	-525.20880	388.74231	177.05522	-642.98145	327.13339	208.79550	-594.98285	349.38031	168.43474	-731.95898	342.57620	165.30669	-443.49649	449.07843	147.06529	-450.45969	75.42318	144.63100	-806.16907	82.48008	142.70892	-799.17438	457.58081	145.06342	
721	14.400	-721.42242	240.24236	1836.14526	-688.12000	54.21254	1523.03149	-661.36084	437.81781	1540.07678	-573.21033	255.33847	1396.52991	-544.75769	122.53712	1097.24988	-567.28790	392.30292	1072.35815	-763.00299	244.99939	1043.16699	-589.64679	98.08701	897.28845	-541.59247	158.44191	850.34906	-635.73541	92.56889	753.24152	-653.92346	125.01586	610.36719	-643.23383	233.73459	565.33484	-692.31000	123.92966	542.70251	-608.99561	174.98235	549.31378	-730.41650	127.05904	475.33850	-689.15613	145.71971	214.43332	-618.05151	77.33189	165.81549	-573.20105	49.09379	160.62315	-493.83701	91.79244	160.54922	-532.57300	143.66779	165.52968	-635.05463	218.07367	219.14369	-593.12811	188.59146	169.50713	-717.45020	214.10443	169.54839	-594.12744	437.71112	889.60437	-544.44153	379.56485	845.66663	-636.74426	440.73053	756.92615	-667.24573	414.20810	630.65448	-630.33557	311.88870	581.78229	-674.91901	411.00134	565.18585	-621.00140	370.98984	543.45807	-726.13824	414.96936	511.51065	-682.07245	414.03201	213.74507	-585.98602	469.58267	163.65062	-546.82404	480.65228	157.61893	-487.90292	430.13052	166.90117	-525.23419	388.76303	177.12581	-642.93250	327.07800	208.85567	-595.05420	349.37094	168.39029	-731.96844	342.58075	165.27336	-443.48245	449.07556	147.04611	-450.48502	75.34520	144.58772	-806.16199	82.47884	142.70697	-799.12347	457.65155	145.01680	
722	14.420	-721.32477	239.84517	1836.30688	-688.25970	53.87190	1523.02612	-661.84839	437.38556	1539.75916	-573.54907	255.06528	1396.52686	-544.23218	121.81292	1097.98523	-567.49506	392.23508	1072.40710	-763.05786	244.50749	1043.23352	-589.61987	97.93881	897.25836	-541.69849	158.27409	850.31598	-635.67358	92.26272	753.20850	-653.86359	124.93671	610.24573	-643.29559	233.67603	565.45728	-692.26147	123.55425	542.68329	-609.03705	174.87248	549.30902	-730.29437	126.82291	475.19815	-689.15869	145.64581	214.39078	-618.04950	77.31589	165.82008	-573.21027	49.08973	160.61296	-493.81622	91.76816	160.57394	-532.56543	143.62845	165.51123	-635.14386	218.00360	219.05911	-593.17346	188.63469	169.43108	-717.44000	214.07442	169.57605	-594.38312	437.44000	889.47675	-544.54102	379.46030	845.76770	-636.87714	440.47855	756.97998	-667.22632	414.15176	630.65802	-630.32544	311.79880	581.68231	-674.95343	410.82819	565.23737	-620.99152	370.91733	543.49255	-726.11633	414.84293	511.48990	-682.09705	414.03000	213.74977	-585.99695	469.54877	163.67093	-546.84613	480.62744	157.60106	-488.01205	430.14459	166.94337	-525.26581	388.78619	177.21342	-642.90570	327.02081	208.94583	-595.05566	349.38849	168.37817	-731.98853	342.59189	165.25201	-443.45645	449.06827	147.01015	-450.50601	75.27384	144.54558	-806.15558	82.49080	142.68488	-799.10162	457.67117	145.03940	
723	14.440	-721.35571	239.49347	1836.35303	-688.35144	53.47291	1523.05127	-662.24823	436.97348	1539.46338	-573.90631	254.77478	1396.51855	-543.76294	121.10951	1098.67786	-567.70630	392.15463	1072.44592	-763.05017	243.97849	1043.31177	-589.63934	97.73075	897.21979	-541.92853	158.00949	850.23840	-635.72009	91.91085	753.08368	-653.90234	124.76332	610.16003	-643.45886	233.57228	565.53656	-692.25110	123.16364	542.65454	-609.10999	174.76198	549.34161	-730.23718	126.58163	475.10248	-689.17566	145.60625	214.33748	-618.05066	77.29645	165.81099	-573.22028	49.06569	160.61177	-493.82257	91.76089	160.58989	-532.55603	143.58188	165.52654	-635.20508	217.95416	219.05051	-593.17389	188.63454	169.42075	-717.45477	214.05884	169.61835	-594.61646	437.25400	889.53076	-544.72052	379.30368	845.80316	-636.93695	440.23364	757.02765	-667.18298	414.03983	630.67578	-630.28925	311.70844	581.60919	-674.92303	410.66483	565.29895	-620.92365	370.83749	543.56213	-726.07855	414.70935	511.48849	-682.10663	414.01709	213.74879	-586.01184	469.52103	163.69641	-546.85156	480.59756	157.61876	-488.13528	430.14496	166.99284	-525.29108	388.80850	177.28142	-642.90338	326.98758	208.99666	-595.05310	349.42346	168.38533	-732.01471	342.59488	165.24757	-443.42902	449.07300	146.96806	-450.52130	75.25729	144.51706	-806.15405	82.51653	142.66013	-799.10938	457.63037	145.08839	
724	14.460	-721.49054	239.18872	1836.24255	-688.35675	53.05008	1523.07422	-662.57690	436.59354	1539.26648	-574.20270	254.49203	1396.51880	-543.35193	120.42918	1099.32556	-567.92078	392.06104	1072.47375	-763.07806	243.46214	1043.36975	-589.71466	97.45332	897.17664	-542.21509	157.63499	850.19080	-635.86963	91.51685	752.95038	-654.05957	124.47235	610.13257	-643.68854	233.42578	565.58911	-692.29541	122.86195	542.62634	-609.24207	174.61220	549.40204	-730.27197	126.34473	475.07260	-689.20441	145.59596	214.28091	-618.05737	77.28234	165.78401	-573.22577	49.02751	160.62350	-493.85553	91.77394	160.58560	-532.55481	143.55090	165.57896	-635.26984	217.90044	219.07957	-593.13550	188.57881	169.51192	-717.48254	214.04262	169.64755	-594.81140	437.14575	889.79181	-544.98859	379.06531	845.76202	-636.96954	439.93301	757.03839	-667.12952	413.84958	630.70654	-630.24054	311.59320	581.56702	-674.84296	410.48184	565.36536	-620.78735	370.73804	543.68359	-726.04456	414.52399	511.50198	-682.09955	414.00540	213.75475	-586.02435	469.50964	163.73035	-546.84521	480.57043	157.65520	-488.23685	430.14059	167.04837	-525.30957	388.83163	177.31647	-642.91217	326.97668	208.98297	-595.08667	349.46756	168.40288	-732.03619	342.57452	165.25450	-443.40427	449.10092	146.94344	-450.52887	75.28410	144.51459	-806.16364	82.54806	142.65109	-799.12207	457.57233	145.10693	
